<svg width="124" height="32" viewBox="0 0 124 32" fill="none" xmlns="http://www.w3.org/2000/svg">
<path d="M36.87 10.0699H39.87V22.1999H36.87V10.0699ZM41.06 17.6199C41.06 14.6199 42.9 12.8299 45.74 12.8299C48.58 12.8299 50.42 14.6199 50.42 17.6199C50.42 20.6199 48.62 22.4199 45.74 22.4199C42.86 22.4199 41.06 20.6699 41.06 17.6199ZM47.41 17.6199C47.41 15.9699 46.76 14.9999 45.74 14.9999C44.72 14.9999 44.08 15.9999 44.08 17.6199C44.08 19.2399 44.71 20.2199 45.74 20.2199C46.77 20.2199 47.41 19.2999 47.41 17.6299V17.6199ZM51.55 22.7899H54.43C54.5671 23.0944 54.7988 23.3465 55.0907 23.5087C55.3826 23.6708 55.7191 23.7344 56.05 23.6899C57.19 23.6899 57.79 23.0699 57.79 22.1699V20.4899H57.73C57.491 21.0048 57.1031 21.4362 56.6165 21.7286C56.1299 22.0209 55.5668 22.1607 55 22.1299C52.81 22.1299 51.36 20.4599 51.36 17.5899C51.36 14.7199 52.74 12.9099 55.04 12.9099C55.6246 12.887 56.2022 13.0433 56.6955 13.3578C57.1888 13.6724 57.5742 14.1302 57.8 14.6699V12.9999H60.8V22.0999C60.8 24.2899 58.87 25.6499 56.02 25.6499C53.37 25.6499 51.72 24.4599 51.55 22.7999V22.7899ZM57.8 17.6099C57.8 16.1499 57.13 15.2299 56.07 15.2299C55.01 15.2299 54.36 16.1399 54.36 17.6099C54.36 19.0799 55 19.9099 56.07 19.9099C57.14 19.9099 57.8 19.0999 57.8 17.6199V17.6099ZM61.93 17.6099C61.93 14.6099 63.77 12.8199 66.61 12.8199C69.45 12.8199 71.3 14.6099 71.3 17.6099C71.3 20.6099 69.5 22.4099 66.61 22.4099C63.72 22.4099 61.93 20.6699 61.93 17.6199V17.6099ZM68.28 17.6099C68.28 15.9599 67.63 14.9899 66.61 14.9899C65.59 14.9899 65 15.9999 65 17.6299C65 19.2599 65.63 20.2299 66.65 20.2299C67.67 20.2299 68.28 19.2999 68.28 17.6299V17.6099ZM72.44 10.8199C72.4321 10.517 72.5144 10.2186 72.6763 9.96255C72.8383 9.70645 73.0726 9.50421 73.3496 9.38145C73.6266 9.25869 73.9338 9.22094 74.2323 9.27299C74.5308 9.32505 74.8071 9.46456 75.0262 9.67383C75.2454 9.88311 75.3974 10.1527 75.4631 10.4485C75.5288 10.7443 75.5052 11.0529 75.3952 11.3353C75.2853 11.6176 75.094 11.861 74.8456 12.0345C74.5973 12.208 74.3029 12.3039 74 12.3099C73.7992 12.3237 73.5977 12.2958 73.4082 12.228C73.2186 12.1602 73.0452 12.054 72.8987 11.9159C72.7522 11.7779 72.6358 11.611 72.5569 11.4258C72.4779 11.2407 72.4381 11.0412 72.44 10.8399V10.8199ZM72.44 13.0199H75.44V22.1999H72.44V13.0199ZM86.33 17.6099C86.33 20.6099 85 22.3199 82.72 22.3199C82.1354 22.3574 81.5533 22.2145 81.0525 21.9105C80.5517 21.6064 80.1564 21.1559 79.92 20.6199H79.86V25.1399H76.86V12.9999H79.86V14.6399H79.92C80.1454 14.095 80.5332 13.6328 81.0306 13.3161C81.528 12.9994 82.1109 12.8436 82.7 12.8699C85 12.9099 86.37 14.6299 86.37 17.6299L86.33 17.6099ZM83.33 17.6099C83.33 16.1499 82.66 15.2199 81.61 15.2199C80.56 15.2199 79.89 16.1599 79.88 17.6099C79.87 19.0599 80.56 19.9899 81.61 19.9899C82.66 19.9899 83.33 19.0799 83.33 17.6299V17.6099ZM91.48 12.8099C93.97 12.8099 95.48 13.9899 95.55 15.8799H92.82C92.82 15.2299 92.28 14.8199 91.45 14.8199C90.62 14.8199 90.25 15.1399 90.25 15.6099C90.25 16.0799 90.58 16.2299 91.25 16.3699L93.17 16.7599C95 17.1499 95.78 17.8899 95.78 19.2799C95.78 21.1799 94.05 22.3999 91.5 22.3999C88.95 22.3999 87.28 21.1799 87.15 19.3099H90.04C90.13 19.9899 90.67 20.3899 91.55 20.3899C92.43 20.3899 92.83 20.0999 92.83 19.6199C92.83 19.1399 92.55 19.0399 91.83 18.8899L90.1 18.5199C88.31 18.1499 87.37 17.1999 87.37 15.7999C87.39 13.9999 89 12.8299 91.48 12.8299V12.8099ZM105.79 22.1799H102.9V20.4699H102.84C102.681 21.044 102.331 21.5465 101.847 21.894C101.363 22.2414 100.775 22.4129 100.18 22.3799C99.7242 22.4058 99.2682 22.3336 98.8427 22.1681C98.4172 22.0026 98.0322 21.7478 97.7137 21.4207C97.3952 21.0937 97.1505 20.702 96.9964 20.2723C96.8422 19.8426 96.7821 19.3848 96.82 18.9299V12.9999H99.82V18.2399C99.82 19.3299 100.38 19.9099 101.31 19.9099C101.528 19.9103 101.744 19.8642 101.943 19.7745C102.141 19.6848 102.319 19.5536 102.463 19.3898C102.606 19.2259 102.714 19.0332 102.777 18.8246C102.84 18.6159 102.859 18.3961 102.83 18.1799V12.9999H105.83L105.79 22.1799ZM107.24 12.9999H110.14V14.7699H110.2C110.359 14.2034 110.702 13.7056 111.174 13.3546C111.646 13.0036 112.222 12.819 112.81 12.8299C113.409 12.782 114.003 12.9611 114.476 13.3317C114.948 13.7023 115.264 14.2371 115.36 14.8299H115.42C115.601 14.2308 115.977 13.7092 116.488 13.3471C116.998 12.985 117.615 12.803 118.24 12.8299C118.648 12.8162 119.054 12.8885 119.432 13.0421C119.811 13.1956 120.152 13.4271 120.435 13.7213C120.718 14.0156 120.936 14.3661 121.075 14.75C121.213 15.1339 121.27 15.5428 121.24 15.9499V22.1999H118.24V16.7499C118.24 15.7499 117.79 15.2899 116.95 15.2899C116.763 15.2883 116.577 15.3269 116.406 15.4031C116.235 15.4793 116.082 15.5913 115.958 15.7316C115.834 15.8719 115.741 16.0371 115.686 16.2162C115.631 16.3954 115.616 16.5842 115.64 16.7699V22.1999H112.79V16.7099C112.79 15.7899 112.34 15.2899 111.52 15.2899C111.331 15.29 111.143 15.3302 110.971 15.4079C110.798 15.4857 110.643 15.5992 110.518 15.7409C110.392 15.8826 110.298 16.0494 110.241 16.2303C110.185 16.4111 110.167 16.6018 110.19 16.7899V22.1999H107.19L107.24 12.9999Z" fill="white"/>
<path d="M28.48 10.6199C27.9711 9.45625 27.2976 8.37182 26.48 7.39989C25.2715 5.92023 23.7633 4.71328 22.0547 3.85849C20.3461 3.00371 18.4758 2.52046 16.567 2.44055C14.6582 2.36064 12.7541 2.68588 10.98 3.39488C9.20594 4.10387 7.60214 5.18054 6.27417 6.55402C4.94619 7.92749 3.92414 9.56664 3.27529 11.3636C2.62644 13.1605 2.36549 15.0745 2.50963 16.9795C2.65378 18.8846 3.19973 20.7375 4.11157 22.4163C5.02341 24.0952 6.28046 25.5619 7.79998 26.7199C8.77498 27.4778 9.85233 28.0939 11 28.5499C12.609 29.2093 14.3311 29.5489 16.07 29.5499C19.6594 29.542 23.0992 28.1112 25.6355 25.5712C28.1717 23.0312 29.5974 19.5893 29.6 15.9999C29.6026 14.1484 29.2213 12.3165 28.48 10.6199ZM16.06 5.18988C17.6216 5.18972 19.1643 5.53102 20.58 6.18988C20.2348 6.33905 19.8718 6.44324 19.5 6.49989C18.2766 6.67698 17.1433 7.24496 16.2692 8.11906C15.3951 8.99315 14.8271 10.1265 14.65 11.3499C14.5723 12.036 14.2602 12.6743 13.7665 13.1571C13.2728 13.6399 12.6277 13.9375 11.94 13.9999C10.7166 14.177 9.58324 14.745 8.70915 15.6191C7.83506 16.4932 7.26707 17.6265 7.08998 18.8499C7.03002 19.5023 6.75167 20.1154 6.29998 20.5899C5.52063 18.9432 5.17053 17.126 5.28225 15.3076C5.39397 13.4892 5.96388 11.7286 6.93895 10.1896C7.91401 8.65068 9.26255 7.3834 10.8591 6.50573C12.4556 5.62806 14.2482 5.16853 16.07 5.16988L16.06 5.18988ZM7.78998 22.9999C7.90998 22.8899 8.02998 22.7899 8.14998 22.6699C9.03963 21.8074 9.61069 20.6688 9.76998 19.4399C9.83456 18.7491 10.143 18.1039 10.64 17.6199C11.1183 17.1221 11.762 16.8162 12.45 16.7599C13.6734 16.5828 14.8067 16.0148 15.6808 15.1407C16.5549 14.2666 17.1229 13.1333 17.3 11.9099C17.3433 11.1874 17.6533 10.5067 18.17 9.99989C18.6601 9.51174 19.3099 9.21699 20 9.16988C21.1239 9.01525 22.1721 8.5156 23 7.73989C23.9427 8.52196 24.7413 9.46278 25.36 10.5199C25.322 10.5712 25.2784 10.6182 25.23 10.6599C24.7527 11.1621 24.1098 11.4747 23.42 11.5399C22.1953 11.7139 21.0603 12.2809 20.1856 13.1555C19.311 14.0302 18.744 15.1652 18.57 16.3899C18.4995 17.0783 18.1932 17.7212 17.703 18.2096C17.2127 18.6981 16.5687 19.002 15.88 19.0699C14.653 19.2456 13.5155 19.8125 12.6363 20.6862C11.7572 21.56 11.1833 22.694 11 23.9199C10.9462 24.4086 10.7783 24.8779 10.51 25.2899C9.48397 24.6807 8.56507 23.9071 7.78998 22.9999ZM16.06 26.8599C15.0453 26.861 14.0354 26.7196 13.06 26.4399C13.3937 25.8179 13.6106 25.14 13.7 24.4399C13.7701 23.753 14.075 23.1113 14.5632 22.6231C15.0514 22.1349 15.6931 21.83 16.38 21.7599C17.6052 21.5848 18.7408 21.0177 19.6169 20.1434C20.4929 19.2692 21.0624 18.1347 21.24 16.9099C21.3101 16.223 21.615 15.5813 22.1032 15.0931C22.5914 14.6049 23.2331 14.3 23.92 14.2299C24.842 14.11 25.7208 13.7667 26.48 13.2299C26.9016 14.8278 26.9515 16.501 26.626 18.1212C26.3005 19.7414 25.6081 21.2656 24.6021 22.5767C23.5961 23.8877 22.3032 24.951 20.8224 25.6848C19.3417 26.4186 17.7126 26.8035 16.06 26.8099V26.8599Z" fill="white"/>
</svg>
