<svg width="153" height="38" viewBox="0 0 153 38" fill="none" xmlns="http://www.w3.org/2000/svg">
<g clip-path="url(#clip0_10_603)">
<path d="M44.5539 26.6869H55.5039V23.3503H48.4458V10.7825H44.5539V26.6869Z" fill="white"/>
<path d="M61.9915 24.4625C60.4304 24.4625 59.6168 23.0834 59.6168 21.0147C59.6168 18.946 60.4304 17.5446 61.9915 17.5446C63.5527 17.5446 64.3882 18.946 64.3882 21.0147C64.3882 23.0834 63.5527 24.4625 61.9915 24.4625ZM62.0135 27.0428C65.6415 27.0428 68.0162 24.4402 68.0162 21.0147C68.0162 17.5891 65.6415 14.9866 62.0135 14.9866C58.4074 14.9866 55.9888 17.5891 55.9888 21.0147C55.9888 24.4402 58.4074 27.0428 62.0135 27.0428Z" fill="white"/>
<path d="M74.296 30.6238C75.9671 30.6238 77.4403 30.2457 78.4298 29.3559C79.3313 28.5329 79.9249 27.2872 79.9249 25.5745V15.2978H76.4948V16.5212H76.4508C75.7912 15.5647 74.7797 14.9641 73.2846 14.9641C70.4921 14.9641 68.5571 17.322 68.5571 20.6586C68.5571 24.1508 70.9099 26.0638 73.4385 26.0638C74.8017 26.0638 75.6593 25.5077 76.3189 24.7514H76.4069V25.8859C76.4069 27.265 75.7692 28.0658 74.252 28.0658C73.0647 28.0658 72.471 27.5542 72.2731 26.9536H68.799C69.1508 29.3337 71.1957 30.6238 74.296 30.6238ZM74.274 23.3723C72.9327 23.3723 72.0532 22.2601 72.0532 20.5473C72.0532 18.8123 72.9327 17.7001 74.274 17.7001C75.7692 17.7001 76.5608 18.9903 76.5608 20.5251C76.5608 22.1266 75.8352 23.3723 74.274 23.3723Z" fill="white"/>
<path d="M86.978 24.4625C85.4168 24.4625 84.6032 23.0834 84.6032 21.0147C84.6032 18.946 85.4168 17.5446 86.978 17.5446C88.5391 17.5446 89.3746 18.946 89.3746 21.0147C89.3746 23.0834 88.5391 24.4625 86.978 24.4625ZM86.9999 27.0428C90.628 27.0428 93.0029 24.4402 93.0029 21.0147C93.0029 17.5891 90.628 14.9866 86.9999 14.9866C83.3939 14.9866 80.9752 17.5891 80.9752 21.0147C80.9752 24.4402 83.3939 27.0428 86.9999 27.0428Z" fill="white"/>
<path d="M94.0492 26.6869H97.6332V15.298H94.0492V26.6869ZM94.0492 13.7187H97.6332V10.7825H94.0492V13.7187Z" fill="white"/>
<path d="M99.188 30.4459H102.772V25.5077H102.816C103.52 26.4642 104.553 27.0426 106.004 27.0426C108.951 27.0426 110.908 24.6847 110.908 20.9922C110.908 17.5666 109.083 14.9641 106.092 14.9641C104.553 14.9641 103.454 15.6537 102.684 16.6769H102.618V15.2978H99.188V30.4459ZM105.081 24.2398C103.542 24.2398 102.662 22.9719 102.662 21.1257C102.662 19.2794 103.454 17.8781 105.015 17.8781C106.554 17.8781 107.28 19.1682 107.28 21.1257C107.28 23.0609 106.444 24.2398 105.081 24.2398Z" fill="white"/>
<path d="M116.744 27.0426C119.69 27.0426 121.867 25.7524 121.867 23.2611C121.867 20.3471 119.536 19.8355 117.557 19.5019C116.128 19.2349 114.853 19.1237 114.853 18.3229C114.853 17.6111 115.534 17.2775 116.414 17.2775C117.403 17.2775 118.085 17.5889 118.217 18.6121H121.515C121.339 16.3655 119.624 14.9641 116.436 14.9641C113.775 14.9641 111.576 16.2098 111.576 18.6121C111.576 21.2814 113.665 21.8152 115.622 22.1489C117.117 22.4158 118.481 22.527 118.481 23.5503C118.481 24.2843 117.799 24.6847 116.722 24.6847C115.534 24.6847 114.787 24.1286 114.655 22.9942H111.269C111.378 25.5077 113.445 27.0426 116.744 27.0426Z" fill="white"/>
<path d="M126.734 27.0204C128.296 27.0204 129.285 26.3976 130.099 25.2854H130.165V26.6867H133.595V15.2979H130.011V21.6596C130.011 23.0165 129.263 23.9507 128.032 23.9507C126.888 23.9507 126.339 23.2612 126.339 22.0155V15.2979H122.777V22.7718C122.777 25.3076 124.14 27.0204 126.734 27.0204Z" fill="white"/>
<path d="M135.154 26.6866H138.738V20.3026C138.738 18.9458 139.398 17.9893 140.519 17.9893C141.596 17.9893 142.102 18.7011 142.102 19.9245V26.6866H145.686V20.3026C145.686 18.9458 146.324 17.9893 147.467 17.9893C148.545 17.9893 149.05 18.7011 149.05 19.9245V26.6866H152.634V19.2794C152.634 16.7214 151.359 14.9641 148.808 14.9641C147.357 14.9641 146.148 15.5869 145.268 16.9661H145.224C144.653 15.7426 143.531 14.9641 142.058 14.9641C140.431 14.9641 139.354 15.7426 138.65 16.9216H138.584V15.2978H135.154V26.6866Z" fill="white"/>
<path fill-rule="evenodd" clip-rule="evenodd" d="M7.92869 3.60682C6.61797 4.53399 5.43272 5.63019 4.40382 6.86419C8.60839 6.4693 13.9501 7.11411 20.1519 10.2511C26.7745 13.6008 32.1073 13.7141 35.8187 12.9899C35.4819 11.9584 35.0579 10.9671 34.5558 10.0247C30.3072 10.478 24.8606 9.87795 18.513 6.66732C14.4822 4.62848 10.9292 3.78861 7.92869 3.60682ZM32.074 6.45106C28.7189 2.6588 23.8431 0.272217 18.4163 0.272217C16.8226 0.272217 15.2763 0.478072 13.8022 0.864906C15.7987 1.416 17.9196 2.22225 20.1519 3.35139C24.7992 5.70207 28.8115 6.45895 32.074 6.45106ZM36.6122 16.6104C32.1285 17.5061 25.9369 17.3221 18.513 13.567C11.5725 10.0564 6.04844 10.1006 2.32282 10.9381C2.13051 10.9813 1.94274 11.0268 1.75949 11.074C1.27172 12.1472 0.882358 13.2757 0.602989 14.4476C0.90137 14.367 1.2097 14.2903 1.52782 14.2187C6.04765 13.2027 12.4338 13.2468 20.1519 17.1508C27.0925 20.6614 32.6165 20.6172 36.3422 19.7796C36.4698 19.751 36.5956 19.7213 36.7193 19.6907C36.7328 19.3985 36.7396 19.1044 36.7396 18.8088C36.7396 18.065 36.6964 17.3314 36.6122 16.6104ZM36.121 23.6026C31.6808 24.3879 25.6696 24.0865 18.513 20.4667C11.5725 16.956 6.04844 17.0003 2.32282 17.8378C1.49584 18.0237 0.7519 18.2501 0.0956409 18.4891C0.0938516 18.5954 0.0929565 18.702 0.0929565 18.8088C0.0929565 29.0463 8.29659 37.3454 18.4163 37.3454C26.8973 37.3454 34.0326 31.5164 36.121 23.6026Z" fill="white"/>
</g>
<defs>
<clipPath id="clip0_10_603">
<rect width="153" height="38" fill="white"/>
</clipPath>
</defs>
</svg>
