<svg width="134" height="36" viewBox="0 0 134 36" fill="none" xmlns="http://www.w3.org/2000/svg">
<path d="M39.0935 11.7601H42.3521V24.7601H39.0935V11.7601ZM43.6515 19.8701C43.6515 16.6501 45.6818 14.7201 48.7273 14.7201C51.7727 14.7201 53.8031 16.6501 53.8031 19.8701C53.8031 23.0901 51.8438 25.0401 48.7273 25.0401C45.6108 25.0401 43.6515 23.1601 43.6515 19.8701ZM50.5749 19.8701C50.5749 18.1001 49.8744 17.0601 48.7577 17.0601C47.6411 17.0601 46.9508 18.0601 46.9508 19.8701C46.9508 21.6801 47.6411 22.6701 48.7577 22.6701C49.8744 22.6701 50.5952 21.6801 50.5952 19.8801L50.5749 19.8701ZM55.1024 25.4301H58.2494C58.3927 25.7638 58.6429 26.0423 58.9618 26.2228C59.2808 26.4034 59.6509 26.4762 60.0158 26.4301C61.2644 26.4301 61.9141 25.7701 61.9141 24.7901V22.9901H61.9243C61.6554 23.5506 61.2205 24.0177 60.6769 24.3301C60.1333 24.6425 59.5065 24.7854 58.8788 24.7401C56.4932 24.7401 54.9096 22.9501 54.9096 19.8701C54.9096 16.7901 56.4221 14.8701 58.9702 14.8701C59.6139 14.8362 60.2525 14.9997 60.7979 15.3382C61.3433 15.6767 61.7687 16.1735 62.0156 16.7601H61.9243V14.9501H65.1524V24.6901C65.1524 27.0401 63.0409 28.5101 59.9346 28.5101C57.1124 28.5001 55.3055 27.2301 55.1227 25.4401L55.1024 25.4301ZM61.9243 19.8701C61.9243 18.3001 61.1934 17.3101 60.0361 17.3101C58.8788 17.3101 58.1682 18.3101 58.1682 19.8701C58.1682 21.4301 58.8687 22.3501 60.0361 22.3501C61.2035 22.3501 61.9243 21.5001 61.9243 19.8701ZM66.4417 19.8701C66.4417 16.6501 68.472 14.7201 71.5174 14.7201C74.5629 14.7201 76.5932 16.6501 76.5932 19.8701C76.5932 23.0901 74.6238 25.0401 71.5174 25.0401C68.4111 25.0401 66.462 23.1601 66.462 19.8701H66.4417ZM73.365 19.8701C73.365 18.1001 72.6544 17.0601 71.5479 17.0601C70.4414 17.0601 69.7409 18.0601 69.7409 19.8701C69.7409 21.6801 70.4312 22.6701 71.5479 22.6701C72.6646 22.6701 73.3853 21.6801 73.3853 19.8801L73.365 19.8701ZM77.9129 12.5801C77.8987 12.2531 77.9842 11.9294 78.1583 11.6507C78.3324 11.3719 78.5872 11.1509 78.8899 11.016C79.1926 10.881 79.5293 10.8384 79.8568 10.8936C80.1843 10.9487 80.4875 11.0991 80.7275 11.3254C80.9675 11.5518 81.1333 11.8436 81.2035 12.1635C81.2737 12.4834 81.2451 12.8167 81.1215 13.1204C80.9978 13.4242 80.7848 13.6846 80.5097 13.8681C80.2346 14.0516 79.91 14.1498 79.5777 14.1501C79.3655 14.1554 79.1541 14.1191 78.9562 14.0434C78.7582 13.9676 78.5774 13.8538 78.4244 13.7087C78.2715 13.5636 78.1492 13.39 78.065 13.1979C77.9806 13.0059 77.9358 12.7993 77.9332 12.5901L77.9129 12.5801ZM77.9129 14.9401H81.2121V24.8001H77.9637L77.9129 14.9401ZM93.0793 19.8701C93.0793 23.0801 91.6174 24.9401 89.1303 24.9401C88.4936 24.9788 87.8602 24.824 87.3155 24.4968C86.7709 24.1695 86.3414 23.6855 86.0849 23.1101H86.024V27.9701H82.7653V14.9701H86.0037V16.7301H86.0646C86.3123 16.1434 86.7376 15.6461 87.2825 15.3061C87.8276 14.9661 88.4657 14.7999 89.11 14.8301C91.6682 14.8101 93.1402 16.6601 93.1402 19.8801L93.0793 19.8701ZM89.7597 19.8701C89.7597 18.3101 89.0187 17.3001 87.8715 17.3001C86.7244 17.3001 86.0037 18.3001 85.9935 19.8701C85.9834 21.4401 86.7244 22.4301 87.8715 22.4301C89.0187 22.4301 89.8206 21.5001 89.8206 19.8801L89.7597 19.8701ZM98.6423 14.7101C101.373 14.7101 103.068 15.9801 103.089 18.0201H100.114C100.114 17.3101 99.5153 16.8701 98.622 16.8701C97.7287 16.8701 97.3023 17.2101 97.3023 17.7201C97.3023 18.2301 97.6779 18.3901 98.4291 18.5401L100.52 18.9601C102.551 19.3801 103.363 20.1801 103.363 21.6701C103.363 23.6701 101.485 25.0301 98.6931 25.0301C95.9014 25.0301 94.0843 23.7101 93.9523 21.7001H97.1094C97.2008 22.4301 97.7896 22.8601 98.7438 22.8601C99.698 22.8601 100.145 22.5601 100.145 22.0301C100.145 21.5001 99.8402 21.4101 99.0585 21.2501L97.1703 20.8601C95.2111 20.4501 94.1858 19.4401 94.1858 17.9301C94.2467 15.9701 95.9521 14.7201 98.7032 14.7201L98.6423 14.7101ZM114.276 24.7901H111.119V22.9401H111.058C110.881 23.5572 110.496 24.0965 109.966 24.4691C109.436 24.8418 108.794 25.0255 108.144 24.9901C107.654 25.0058 107.164 24.9192 106.711 24.7358C106.257 24.5525 105.847 24.2766 105.509 23.9263C105.17 23.5759 104.911 23.159 104.747 22.703C104.584 22.247 104.52 21.762 104.561 21.2801V14.9501H107.819V20.5901C107.819 21.7501 108.439 22.3801 109.454 22.3801C109.692 22.3783 109.927 22.3262 110.143 22.2274C110.359 22.1285 110.551 21.9851 110.705 21.8069C110.861 21.6287 110.975 21.4198 111.041 21.1944C111.106 20.9689 111.123 20.7322 111.088 20.5001V14.9501H114.337L114.276 24.7901ZM115.849 14.9401H119.016V16.8401H119.087C119.262 16.2314 119.638 15.6971 120.153 15.3207C120.67 14.9444 121.298 14.7472 121.94 14.7601C122.585 14.7049 123.227 14.8885 123.741 15.275C124.256 15.6615 124.605 16.2232 124.722 16.8501H124.864C125.067 16.2198 125.475 15.6732 126.026 15.2953C126.576 14.9173 127.239 14.7292 127.909 14.7601C128.355 14.7434 128.799 14.8196 129.213 14.9837C129.627 15.1477 130 15.396 130.31 15.7123C130.62 16.0285 130.857 16.4056 131.008 16.8188C131.161 17.232 131.222 17.672 131.188 18.1101V24.8001H127.909V18.9301C127.909 17.9301 127.432 17.3701 126.508 17.3701C126.303 17.3668 126.1 17.4072 125.912 17.4884C125.724 17.5697 125.558 17.69 125.422 17.841C125.286 17.9921 125.184 18.1702 125.125 18.3634C125.066 18.5566 125.049 18.7601 125.077 18.9601V24.8001H121.97V18.9001C121.97 17.9001 121.473 17.3701 120.58 17.3701C120.373 17.3685 120.168 17.4105 119.979 17.4933C119.789 17.5762 119.62 17.6979 119.482 17.8504C119.345 18.0029 119.243 18.1826 119.182 18.3774C119.12 18.5723 119.102 18.7778 119.128 18.9801V24.8001H115.869L115.849 14.9401Z" fill="white"/>
<path d="M32.6473 12.61C32.6474 10.6197 32.0373 8.67573 30.8969 7.03279C29.7565 5.38985 28.1388 4.1245 26.256 3.4025C24.3732 2.68049 22.3129 2.53549 20.345 2.98648C18.377 3.43747 16.5933 4.46343 15.2273 5.92997H2.55823V32.27H29.3075V19.96C30.3573 19.035 31.1975 17.9023 31.7729 16.6358C32.3484 15.3693 32.6464 13.9976 32.6473 12.61ZM27.5005 12.61C27.5025 13.5637 27.2173 14.4966 26.6808 15.2906C26.1443 16.0845 25.3809 16.7039 24.487 17.0702C23.5931 17.4366 22.609 17.5335 21.6591 17.3486C20.7093 17.1638 19.8365 16.7055 19.1512 16.0318C18.4658 15.3581 17.9989 14.4993 17.8092 13.564C17.6196 12.6288 17.7159 11.6591 18.086 10.7778C18.456 9.89643 19.0831 9.14306 19.888 8.61299C20.6929 8.08292 21.6393 7.79998 22.6075 7.79997C23.9034 7.79997 25.1464 8.30642 26.0637 9.20818C26.9811 10.1099 27.4978 11.3334 27.5005 12.61ZM24.1606 27.2H7.70505V11H12.7199C12.623 11.5315 12.5721 12.0701 12.5676 12.61C12.5703 15.2322 13.6289 17.7462 15.5112 19.6004C17.3934 21.4545 19.9455 22.4974 22.6075 22.5C23.1279 22.4973 23.6473 22.4538 24.1606 22.37V27.2Z" fill="white"/>
</svg>
