<svg width="49" height="44" viewBox="0 0 49 44" fill="none" xmlns="http://www.w3.org/2000/svg">
<g clip-path="url(#clip0_10_593)">
<path d="M5.18293 5.21233H35.6219H40.3049V2.85616C40.3049 1.56027 39.2512 0.5 37.9634 0.5H2.84146C1.55366 0.5 0.5 1.56027 0.5 2.85616V29.9521C0.5 31.2479 1.55366 32.3082 2.84146 32.3082H16.6912L15.9068 37.0205H11.6102C10.6385 37.0205 9.85415 37.8099 9.85415 38.7877C9.85415 39.7655 10.6385 40.5548 11.6102 40.5548H23.3176V27.5959H5.18293V5.21233ZM43.8171 8.15753H30.939C28.3517 8.15753 26.2561 10.2663 26.2561 12.8699V38.7877C26.2561 41.3912 28.3517 43.5 30.939 43.5H43.8171C46.4044 43.5 48.5 41.3912 48.5 38.7877V12.8699C48.5 10.2663 46.4044 8.15753 43.8171 8.15753ZM38.2561 40.5548H36.5C35.5283 40.5548 34.7439 39.7655 34.7439 38.7877C34.7439 37.8099 35.5283 37.0205 36.5 37.0205H38.2561C39.2278 37.0205 40.0122 37.8099 40.0122 38.7877C40.0122 39.7655 39.2278 40.5548 38.2561 40.5548ZM44.7771 33.3567C44.7771 34.0047 44.2502 34.5348 43.6063 34.5348H31.1615C30.5176 34.5348 29.9907 34.0047 29.9907 33.3567V14.3307C29.9907 13.6827 30.5176 13.1526 31.1615 13.1526H43.6063C44.2502 13.1526 44.7771 13.6827 44.7771 14.3307V33.3685V33.3567Z" fill="#172740"/>
<path d="M21.8776 9.92456H20.5547C20.1917 9.92456 19.8991 10.2191 19.8991 10.5843V11.5621C19.8991 11.8566 19.7 12.1158 19.4074 12.1983C19.0913 12.3043 18.7752 12.4339 18.4825 12.587C18.2249 12.7166 17.9088 12.6931 17.6981 12.481L17.0074 11.7859C16.7498 11.5268 16.3283 11.5268 16.0708 11.7859L15.1342 12.7284C14.8766 12.9876 14.8766 13.4117 15.1342 13.6709L15.8249 14.3659C16.0356 14.578 16.0591 14.8843 15.9303 15.1552C15.7781 15.4498 15.6493 15.7561 15.5439 16.0859C15.4503 16.3687 15.2044 16.5807 14.9117 16.5807H13.94C13.5771 16.5807 13.2844 16.8752 13.2844 17.2405V18.5717C13.2844 18.9369 13.5771 19.2314 13.94 19.2314H14.9117C15.2044 19.2314 15.462 19.4317 15.5439 19.7262C15.6493 20.0443 15.7781 20.3624 15.9303 20.6569C16.0591 20.9161 16.0356 21.2341 15.8249 21.4462L15.1342 22.1413C14.8766 22.4005 14.8766 22.8246 15.1342 23.0837L16.0708 24.0262C16.3283 24.2854 16.7498 24.2854 17.0074 24.0262L17.6981 23.3311C17.9088 23.1191 18.2132 23.0955 18.4825 23.2251C18.7752 23.3783 19.0795 23.5078 19.4074 23.6139C19.6883 23.7081 19.8991 23.9555 19.8991 24.25V25.2278C19.8991 25.5931 20.1917 25.8876 20.5547 25.8876H21.8776C22.2405 25.8876 22.5332 25.5931 22.5332 25.2278V20.9632C22.1234 21.1399 21.6786 21.2459 21.2103 21.2459C19.3839 21.2459 17.9088 19.7615 17.9088 17.9237C17.9088 16.0859 19.3839 14.6015 21.2103 14.6015C21.6786 14.6015 22.1234 14.7076 22.5332 14.8843V10.6196C22.5332 10.2544 22.2405 9.9599 21.8776 9.9599V9.92456ZM40.6093 22.4594H39.6376C39.3449 22.4594 39.0874 22.2591 39.0054 21.9646C38.9 21.6465 38.7713 21.3284 38.6191 21.0339C38.4903 20.7747 38.5137 20.4566 38.7244 20.2446L39.4152 19.5495C39.6727 19.2903 39.6727 18.8662 39.4152 18.607L38.4786 17.6646C38.221 17.4054 37.7995 17.4054 37.542 17.6646L36.8513 18.3596C36.6405 18.5717 36.3361 18.5952 36.0669 18.4657C35.7742 18.3125 35.4698 18.1829 35.142 18.0769C34.861 17.9826 34.6503 17.7352 34.6503 17.4407V16.4629C34.6503 16.0977 34.3576 15.8032 33.9947 15.8032H32.6717C32.3088 15.8032 32.0161 16.0977 32.0161 16.4629V20.7276C32.4259 20.5509 32.8708 20.4448 33.3391 20.4448C35.1654 20.4448 36.6405 21.9292 36.6405 23.767C36.6405 25.6048 35.1654 27.0892 33.3391 27.0892C32.8708 27.0892 32.4259 26.9832 32.0161 26.8065V31.0711C32.0161 31.4363 32.3088 31.7309 32.6717 31.7309H33.9947C34.3576 31.7309 34.6503 31.4363 34.6503 31.0711V30.0933C34.6503 29.7988 34.8493 29.5396 35.142 29.4572C35.4581 29.3511 35.7742 29.2215 36.0669 29.0684C36.3244 28.927 36.6405 28.9624 36.8513 29.1744L37.542 29.8695C37.7995 30.1287 38.221 30.1287 38.4786 29.8695L39.4152 28.927C39.6727 28.6678 39.6727 28.2437 39.4152 27.9846L38.7244 27.2895C38.5137 27.0774 38.4903 26.7711 38.6191 26.5002C38.7713 26.2057 38.9 25.8994 39.0054 25.5695C39.0991 25.2868 39.3449 25.0747 39.6376 25.0747H40.6093C40.9722 25.0747 41.2649 24.7802 41.2649 24.415V23.0837C41.2649 22.7185 40.9722 22.424 40.6093 22.424V22.4594Z" fill="#172740"/>
</g>
<defs>
<clipPath id="clip0_10_593">
<rect width="48" height="43" fill="white" transform="translate(0.5 0.5)"/>
</clipPath>
</defs>
</svg>
