<svg width="59" height="48" viewBox="0 0 59 48" fill="none" xmlns="http://www.w3.org/2000/svg">
<g clip-path="url(#clip0_10_578)">
<path d="M48.2204 0.5H3.11099C1.39995 0.5 0 1.89835 0 3.60744V12.9298C0 14.6388 1.39995 16.0372 3.11099 16.0372H48.2204C49.9314 16.0372 51.3314 14.6388 51.3314 12.9298V3.60744C51.3314 1.89835 49.9314 0.5 48.2204 0.5ZM9.33298 11.376C7.62193 11.376 6.22199 9.97769 6.22199 8.2686C6.22199 6.5595 7.62193 5.16116 9.33298 5.16116C11.044 5.16116 12.444 6.5595 12.444 8.2686C12.444 9.97769 11.044 11.376 9.33298 11.376ZM20.2215 11.376C18.5104 11.376 17.1105 9.97769 17.1105 8.2686C17.1105 6.5595 18.5104 5.16116 20.2215 5.16116C21.9325 5.16116 23.3325 6.5595 23.3325 8.2686C23.3325 9.97769 21.9325 11.376 20.2215 11.376ZM44.3317 10.2107H31.8877C30.8144 10.2107 29.9433 9.34066 29.9433 8.2686C29.9433 7.19653 30.8144 6.32645 31.8877 6.32645H44.3317C45.405 6.32645 46.276 7.19653 46.276 8.2686C46.276 9.34066 45.405 10.2107 44.3317 10.2107ZM0 23.8058V33.1281C0 34.8372 1.39995 36.2355 3.11099 36.2355H28.17C28.0612 35.4742 27.9989 34.6974 27.9989 33.9516C27.9989 33.1126 28.0612 32.2425 28.2012 31.3879C28.4345 29.8187 29.4922 28.5291 30.8922 27.9387C30.3322 26.5248 30.5033 24.8468 31.4521 23.5727C32.2454 22.5007 33.1943 21.5684 34.2054 20.6983H3.11099C1.39995 20.6983 0 22.0967 0 23.8058ZM20.2215 25.3595C21.9325 25.3595 23.3325 26.7579 23.3325 28.4669C23.3325 30.176 21.9325 31.5744 20.2215 31.5744C18.5104 31.5744 17.1105 30.176 17.1105 28.4669C17.1105 26.7579 18.5104 25.3595 20.2215 25.3595ZM9.33298 25.3595C11.044 25.3595 12.444 26.7579 12.444 28.4669C12.444 30.176 11.044 31.5744 9.33298 31.5744C7.62193 31.5744 6.22199 30.176 6.22199 28.4669C6.22199 26.7579 7.62193 25.3595 9.33298 25.3595Z" fill="#172740"/>
<path d="M58.8445 31.9627C58.7978 31.6675 58.5334 31.45 58.2223 31.45H56.9468C56.5424 31.3257 56.2157 31.015 56.0757 30.5955C55.8424 29.8497 55.5157 29.135 55.1269 28.4669C54.9869 28.2183 55.018 27.9231 55.2202 27.7211L56.2468 26.6956C56.4646 26.4781 56.4957 26.1363 56.309 25.8877C55.5313 24.8312 54.598 23.8989 53.5403 23.1221C53.4314 23.0444 53.3069 22.9978 53.1825 22.9978C53.0114 22.9978 52.8558 23.0599 52.7314 23.1842L51.7048 24.2097C51.5803 24.334 51.4403 24.3806 51.2848 24.3806C51.1759 24.3806 51.067 24.3495 50.9737 24.3029C50.0404 23.7591 49.0138 23.3551 47.9249 23.1065V21.1799C47.9249 20.8692 47.7071 20.6051 47.396 20.5584C46.7583 20.4652 46.105 20.4031 45.4361 20.4031C44.7673 20.4031 44.1139 20.4497 43.4762 20.5584C43.1806 20.6051 42.9473 20.8692 42.9473 21.1799V23.1065C41.8585 23.3551 40.8318 23.7591 39.8986 24.3029C39.8052 24.3651 39.6963 24.3806 39.5875 24.3806C39.4319 24.3806 39.2764 24.3184 39.1675 24.2097L38.1408 23.1842C38.0164 23.0599 37.8608 22.9978 37.6897 22.9978C37.5653 22.9978 37.4409 23.0444 37.332 23.1221C36.2898 23.8989 35.3565 24.8312 34.5632 25.8877C34.3765 26.1363 34.4076 26.4781 34.6254 26.6956L35.652 27.7211C35.8543 27.9231 35.8854 28.2183 35.7454 28.4669C35.3565 29.135 35.0454 29.8497 34.7965 30.5955C34.6565 31.015 34.3299 31.3413 33.9254 31.45H32.6499C32.3388 31.45 32.0744 31.6675 32.0277 31.9627C31.9344 32.6153 31.8722 33.2679 31.8722 33.9515C31.8722 34.6351 31.9344 35.2877 32.0277 35.9403C32.0744 36.2355 32.3388 36.453 32.6499 36.453H33.9254C34.3299 36.5773 34.6565 36.888 34.7965 37.3075C35.0298 38.0533 35.3565 38.768 35.7454 39.4361C35.8854 39.6847 35.8543 39.9799 35.652 40.1819L34.6254 41.2074C34.4076 41.4249 34.3765 41.7667 34.5632 42.0153C35.3409 43.0718 36.2742 44.0041 37.332 44.7809C37.4409 44.8586 37.5653 44.9052 37.6897 44.9052C37.8608 44.9052 38.0164 44.8431 38.1408 44.7188L39.1675 43.6933C39.2919 43.569 39.4319 43.5224 39.5875 43.5224C39.6963 43.5224 39.8052 43.5535 39.8986 43.6001C40.8318 44.1439 41.8585 44.5479 42.9473 44.7965V46.7231C42.9473 47.0338 43.1651 47.298 43.4762 47.3446C44.1139 47.4378 44.7673 47.4999 45.4361 47.4999C46.105 47.4999 46.7583 47.4533 47.396 47.3446C47.6916 47.298 47.9249 47.0338 47.9249 46.7231V44.7965C49.0138 44.5479 50.0404 44.1439 50.9737 43.6001C51.067 43.538 51.1759 43.5224 51.2848 43.5224C51.4403 43.5224 51.5959 43.5846 51.7048 43.6933L52.7314 44.7188C52.8558 44.8431 53.0114 44.9052 53.1825 44.9052C53.3069 44.9052 53.4314 44.8586 53.5403 44.7809C54.5824 44.0041 55.5157 43.0718 56.309 42.0153C56.4957 41.7667 56.4646 41.4249 56.2468 41.2074L55.2202 40.1819C55.018 39.9799 54.9869 39.6847 55.1269 39.4361C55.5157 38.768 55.8268 38.0533 56.0757 37.3075C56.2157 36.888 56.5424 36.5618 56.9468 36.453H58.2223C58.5334 36.453 58.7978 36.2355 58.8445 35.9403C58.9378 35.2877 59.0001 34.6351 59.0001 33.9515C59.0001 33.2679 58.9378 32.6153 58.8445 31.9627ZM49.1226 34.5419C48.8893 36.1112 47.5983 37.3852 46.0428 37.6183C45.8405 37.6494 45.6539 37.6649 45.4517 37.6649C43.2118 37.6649 41.4229 35.6761 41.7807 33.3611C42.014 31.7918 43.3051 30.5178 44.8606 30.2847C45.0628 30.2537 45.2495 30.2381 45.4517 30.2381C47.6916 30.2381 49.4804 32.2269 49.1226 34.5419ZM27.5635 40.8966H6.22204C4.93098 40.8966 3.88879 41.9376 3.88879 43.2272C3.88879 44.5168 4.93098 45.5578 6.22204 45.5578H27.5635C28.8545 45.5578 29.8967 44.5168 29.8967 43.2272C29.8967 41.9376 28.8545 40.8966 27.5635 40.8966Z" fill="#172740"/>
</g>
<defs>
<clipPath id="clip0_10_578">
<rect width="59" height="47" fill="white" transform="translate(0 0.5)"/>
</clipPath>
</defs>
</svg>
