<svg width="64" height="56" viewBox="0 0 64 56" fill="none" xmlns="http://www.w3.org/2000/svg">
<g clip-path="url(#clip0_10_588)">
<path d="M42.2776 0C31.9917 0 23.4007 7.12489 21.2737 16.6411C19.1966 15.4455 16.7871 14.7575 14.2115 14.7575C6.48459 14.7412 0.203369 20.9324 0.203369 28.5651C0.203369 36.1977 5.98608 41.8649 13.2976 42.3399H31.4932V33.8883C31.4932 28.1884 38.14 24.0608 47.2793 24.0608C54.1089 24.0608 59.5593 26.3703 61.8524 29.9245C63.0821 27.2548 63.78 24.3229 63.78 21.1945C63.78 9.48347 54.1587 0 42.2776 0Z" fill="#172740"/>
<path d="M47.2794 28.1557C40.8486 28.1557 35.6475 30.7272 35.6475 33.8883V39.3426L36.0961 39.8994C37.4255 41.5374 41.4966 43.3227 47.2794 43.3227C53.0621 43.3227 57.2828 41.5374 58.5623 39.7684L58.9113 39.277V33.872C58.9113 30.7108 53.7101 28.1393 47.2794 28.1393V28.1557ZM47.2794 36.3452C43.607 36.3452 40.6326 35.2478 40.6326 33.8883C40.6326 32.5289 43.607 31.4315 47.2794 31.4315C50.9517 31.4315 53.9262 32.5289 53.9262 33.8883C53.9262 35.2478 50.9517 36.3452 47.2794 36.3452ZM35.6475 44.7476V50.12C35.6475 50.12 35.6475 50.1691 35.6475 50.1855C35.6475 50.2183 35.6475 50.251 35.6475 50.2838C35.6475 53.4449 40.8486 56.0164 47.2794 56.0164C53.7101 56.0164 58.9113 53.4449 58.9113 50.2838C58.9113 50.251 58.9113 50.2183 58.9113 50.1855C58.9113 50.1691 58.9113 50.1364 58.9113 50.12V44.7313C56.0199 46.4183 51.8656 47.4338 47.2794 47.4338C42.6931 47.4338 38.5388 46.4347 35.6475 44.7476Z" fill="#172740"/>
</g>
<defs>
<clipPath id="clip0_10_588">
<rect width="63.5932" height="56" fill="white" transform="translate(0.203369)"/>
</clipPath>
</defs>
</svg>
