<svg width="44" height="52" viewBox="0 0 44 52" fill="none" xmlns="http://www.w3.org/2000/svg">
<g clip-path="url(#clip0_10_598)">
<path d="M14.48 0.160034C14.48 0.160034 14.32 0.192034 14.256 0.256034L0.656021 13.856C0.448021 14.064 0.592021 14.4 0.880021 14.4H13.568C14.24 14.4 14.784 13.856 14.784 13.184V0.480034C14.784 0.288034 14.624 0.160034 14.464 0.160034H14.48ZM42 29.344H22.8C21.92 29.344 21.2 30.064 21.2 30.944V33.728C21.2 34.112 21.328 34.48 21.584 34.768L28.544 42.96C28.784 43.248 28.928 43.616 28.928 44V48.336C28.928 48.912 29.248 49.456 29.76 49.744L33.504 51.824C33.76 51.968 34.016 52.032 34.272 52.032C35.104 52.032 35.872 51.36 35.872 50.432V44.032C35.872 43.648 36 43.28 36.256 42.992L43.216 34.8C43.456 34.512 43.6 34.144 43.6 33.76V30.976C43.6 30.096 42.88 29.376 42 29.376V29.344Z" fill="#172740"/>
<path d="M22.8 25.344H38.608V3.2C38.608 1.44 37.168 0 35.408 0H18.752C18.768 0.16 18.8 0.32 18.8 0.48V13.168C18.8 16.048 16.464 18.384 13.584 18.384H0.880024C0.720024 18.384 0.560024 18.368 0.400024 18.352V44.4C0.400024 46.16 1.84002 47.6 3.60002 47.6H24.928V44.864L18.544 37.344C17.68 36.336 17.216 35.04 17.216 33.712V30.928C17.216 27.84 19.728 25.328 22.816 25.328L22.8 25.344Z" fill="#172740"/>
</g>
<defs>
<clipPath id="clip0_10_598">
<rect width="43.2" height="52" fill="white" transform="translate(0.400024)"/>
</clipPath>
</defs>
</svg>
