<svg width="52" height="52" viewBox="0 0 52 52" fill="none" xmlns="http://www.w3.org/2000/svg">
<g clip-path="url(#clip0_10_583)">
<path d="M20.64 19.2V13.6533C19.4133 13.9333 18.2666 14.3866 17.2133 15C16.9333 15.16 16.5866 15.12 16.36 14.8933L15.1866 13.72C14.9333 13.4666 14.5333 13.4266 14.2533 13.64C13.0533 14.5466 11.9866 15.6133 11.08 16.8133C10.8666 17.0933 10.9066 17.4933 11.16 17.7466L12.3333 18.92C12.56 19.1466 12.6 19.4933 12.44 19.7733C12 20.5466 11.64 21.36 11.36 22.2266C11.2 22.7066 10.8266 23.08 10.36 23.2133H8.89331C8.54664 23.2133 8.23997 23.4666 8.18664 23.8133C8.07997 24.56 8.01331 25.32 8.01331 26.0933C8.01331 26.8666 8.07997 27.6266 8.18664 28.3733C8.23997 28.72 8.54664 28.9733 8.89331 28.9733H10.36C10.8266 29.1066 11.2 29.48 11.36 29.96C11.64 30.8266 12 31.64 12.44 32.4133C12.6 32.6933 12.56 33.04 12.3333 33.2666L11.16 34.44C10.9066 34.6933 10.8666 35.0933 11.08 35.3733C11.9733 36.5733 13.0533 37.6533 14.2533 38.5466C14.5333 38.76 14.9333 38.72 15.1866 38.4666L16.36 37.2933C16.5866 37.0666 16.9333 37.0266 17.2133 37.1866C18.2666 37.7866 19.4266 38.2533 20.64 38.5333V33C17.6133 31.72 15.5866 28.5066 16.1466 24.8933C16.5333 22.3333 18.3066 20.1733 20.64 19.1733V19.2Z" fill="#172740"/>
<path d="M6.2 35.4933C5.84 34.76 5.52 33.9867 5.25333 33.2133C4.88 32.1733 3.74667 31.6267 2.70667 31.9867C1.66667 32.36 1.12 33.4933 1.48 34.5333C1.8 35.44 2.17333 36.3467 2.6 37.2267C2.94667 37.9333 3.65333 38.36 4.4 38.36C4.69333 38.36 4.98667 38.2933 5.26667 38.16C6.26667 37.68 6.68 36.48 6.2 35.4933ZM2.16 29.3067C3.26667 29.24 4.10667 28.2933 4.04 27.1867C4.01333 26.7467 4 26.2933 4 25.8533C4 25.4667 4 25.0933 4.02667 24.72C4.08 23.6133 3.24 22.68 2.13333 22.6267C1 22.5733 0.0933333 23.4133 0.04 24.52C0.0133333 24.96 0 25.4133 0 25.8533C0 26.3867 0.0133333 26.9067 0.0533333 27.4267C0.12 28.4933 1 29.3067 2.05333 29.3067C2.09333 29.3067 2.13333 29.3067 2.17333 29.3067H2.16ZM2.65333 19.92C2.86667 20 3.09333 20.0267 3.30667 20.0267C4.13333 20.0267 4.90667 19.5067 5.2 18.68C5.46667 17.9067 5.78667 17.1333 6.13333 16.4C6.61333 15.4 6.2 14.2133 5.2 13.7333C4.2 13.2533 3.01333 13.6667 2.53333 14.6667C2.12 15.5333 1.73333 16.44 1.41333 17.3733C1.05333 18.4133 1.6 19.56 2.65333 19.92ZM8.06667 11.96C8.61333 11.96 9.16 11.7333 9.56 11.2933C10.1067 10.68 10.6933 10.0933 11.3067 9.56C12.1333 8.82667 12.2133 7.56 11.48 6.73333C10.7467 5.90667 9.48 5.82667 8.65333 6.56C7.93333 7.2 7.24 7.89333 6.58667 8.61333C5.85333 9.44 5.92 10.6933 6.74667 11.44C7.13333 11.7867 7.6 11.9467 8.08 11.9467L8.06667 11.96ZM26 0H24V52H26C40.3333 52 52 40.2667 52 25.8533C52 11.44 40.3333 0 26 0ZM45.5467 15.8533H38.9467C38.08 11.96 36.7333 8.58667 35.0267 5.94667C39.56 7.98667 43.28 11.48 45.56 15.8533H45.5467ZM28 4.50667C30.7867 5.85333 33.4133 9.92 34.8533 15.8533H28V4.50667ZM28 19.8533H35.6C35.8533 21.7333 36 23.7333 36 25.8533C36 27.9733 35.8533 29.9733 35.6 31.8533H28V19.8533ZM28 47.4667V35.8533H34.8533C33.4 41.8533 30.7467 46.0533 28 47.4667ZM34.9867 46.04C36.7333 43.3467 38.1067 39.8533 38.96 35.8533H45.6133C43.3333 40.36 39.5733 43.96 34.9733 46.04H34.9867ZM39.6267 31.8533C39.8667 29.9333 40 27.9333 40 25.8533C40 23.7733 39.8667 21.7733 39.6267 19.8533H47.16C47.7067 21.76 48.0133 23.7733 48.0133 25.8533C48.0133 27.9333 47.72 29.9467 47.1867 31.8533H39.6533H39.6267ZM18.7467 46.76C17.9733 46.48 17.2133 46.16 16.4667 45.8133C15.4667 45.3333 14.28 45.7467 13.7867 46.7333C13.3067 47.72 13.72 48.92 14.7067 49.4133C15.5733 49.84 16.48 50.2133 17.4 50.5467C17.6133 50.6267 17.84 50.6667 18.0667 50.6667C18.8933 50.6667 19.6667 50.16 19.9467 49.3333C20.32 48.2933 19.7733 47.1467 18.7333 46.7867L18.7467 46.76ZM15.56 6.36C15.8533 6.36 16.1467 6.29333 16.4267 6.16C17.16 5.8 17.9333 5.49333 18.7067 5.22667C19.7467 4.86667 20.3067 3.73333 19.9467 2.68C19.5867 1.64 18.4533 1.08 17.4 1.44C16.48 1.76 15.5733 2.13333 14.6933 2.54667C13.6933 3.02667 13.28 4.21333 13.76 5.21333C14.1067 5.93333 14.8133 6.34667 15.56 6.34667V6.36ZM9.62667 40.6133C8.89333 39.7867 7.62667 39.72 6.8 40.4533C5.97333 41.1867 5.90667 42.4533 6.64 43.28C7.28 44 7.97333 44.6933 8.69333 45.3467C9.08 45.6933 9.56 45.8667 10.0267 45.8667C10.5733 45.8667 11.12 45.64 11.5067 45.2C12.24 44.3733 12.1733 43.12 11.36 42.3733C10.7467 41.8267 10.16 41.24 9.61333 40.6267L9.62667 40.6133Z" fill="#172740"/>
</g>
<defs>
<clipPath id="clip0_10_583">
<rect width="52" height="52" fill="white"/>
</clipPath>
</defs>
</svg>
